<?xml version="1.0" standalone="no"?>
<!DOCTYPE svg PUBLIC "-//W3C//DTD SVG 20010904//EN"
 "http://www.w3.org/TR/2001/REC-SVG-20010904/DTD/svg10.dtd">
<svg version="1.0" xmlns="http://www.w3.org/2000/svg"
 width="640.000000pt" height="640.000000pt" viewBox="0 0 640.000000 640.000000"
 preserveAspectRatio="xMidYMid meet">
<metadata>
Created by potrace 1.11, written by Peter Selinger 2001-2013
</metadata>
<g transform="translate(0.000000,640.000000) scale(0.100000,-0.100000)"
fill="#000000" stroke="none">
<path d="M4739 5553 c12 -18 24 -33 27 -33 9 0 -15 37 -33 51 -12 10 -11 5 6
-18z"/>
<path d="M4791 5473 c41 -69 88 -164 95 -196 3 -17 15 -52 25 -77 19 -44 19
-44 0 -21 -12 16 -20 20 -23 11 -2 -7 -17 7 -32 31 -48 72 -117 159 -126 159
-5 0 5 -21 22 -46 17 -26 32 -59 33 -73 1 -15 6 -37 10 -50 7 -22 7 -23 -20
-5 -21 14 -25 23 -21 43 6 24 5 24 -11 -5 -11 -19 -25 -30 -35 -29 -26 5 -22
-17 20 -108 40 -85 77 -190 86 -242 8 -51 43 -130 91 -203 25 -39 45 -75 45
-80 0 -6 7 -12 15 -16 8 -3 15 -13 15 -23 1 -21 23 -53 37 -53 5 0 24 -16 41
-36 24 -26 37 -34 52 -29 23 7 25 17 9 47 -16 29 -22 71 -9 63 12 -8 13 7 1
20 -15 17 -32 78 -37 133 -2 29 -11 72 -20 95 -22 60 -44 135 -54 182 -5 22
-13 58 -19 79 -5 22 -7 44 -4 48 9 15 33 -13 33 -39 0 -31 54 -134 86 -164 22
-20 24 -21 24 -4 0 17 1 17 20 0 11 -10 23 -15 27 -11 5 4 0 12 -10 18 -14 7
-15 13 -7 23 19 23 0 85 -36 122 -19 19 -34 40 -34 48 0 23 -17 26 -36 8 -16
-16 -17 -16 -12 -1 7 16 -19 48 -39 48 -6 0 -21 16 -34 35 -13 19 -28 35 -32
35 -5 0 -6 4 -2 9 10 17 -133 291 -151 291 -3 0 4 -17 17 -37z"/>
<path d="M4700 5252 c0 -12 19 -26 26 -19 2 2 -2 10 -11 17 -9 8 -15 8 -15 2z"/>
<path d="M2936 5109 c-4 -10 -2 -37 5 -60 16 -54 24 -24 11 36 -7 29 -11 35
-16 24z"/>
<path d="M2978 5080 c2 -16 9 -30 14 -30 13 0 6 53 -8 57 -7 2 -9 -8 -6 -27z"/>
<path d="M5250 5106 c0 -2 8 -10 18 -17 15 -13 16 -12 3 4 -13 16 -21 21 -21
13z"/>
<path d="M2899 5053 c-13 -16 -12 -17 4 -4 16 13 21 21 13 21 -2 0 -10 -8 -17
-17z"/>
<path d="M3103 4995 c0 -38 2 -53 4 -32 2 20 2 52 0 70 -2 17 -4 1 -4 -38z"/>
<path d="M4335 5029 c4 -13 8 -36 9 -51 0 -16 4 -28 7 -28 8 0 41 -78 44 -102
0 -9 6 -22 13 -30 9 -11 39 -83 77 -183 4 -11 9 -15 11 -9 3 6 -11 55 -30 110
-37 107 -53 174 -40 174 4 0 16 -8 27 -17 14 -13 11 -4 -9 30 -23 37 -33 46
-50 42 -17 -4 -23 2 -33 35 -6 21 -17 42 -23 46 -8 5 -9 0 -3 -17z"/>
<path d="M3001 5025 c0 -11 6 -38 14 -60 18 -50 18 -14 0 40 -7 23 -13 31 -14
20z"/>
<path d="M2815 5011 c-11 -5 -29 -19 -40 -32 l-20 -23 30 18 c71 44 82 58 30
37z"/>
<path d="M4480 4905 c18 -33 46 -76 62 -96 15 -20 28 -41 28 -45 0 -5 14 -24
30 -43 37 -42 39 -52 3 -20 -38 34 -63 65 -100 123 -28 44 -33 47 -33 26 0
-14 8 -39 19 -56 10 -17 22 -41 26 -55 10 -30 66 -99 82 -99 6 0 18 -9 25 -19
8 -11 27 -23 43 -27 17 -4 35 -11 42 -16 23 -19 21 10 -6 57 -58 104 -74 131
-97 158 -13 16 -24 32 -24 36 0 4 -16 24 -36 44 -20 20 -37 46 -38 58 0 12 -7
24 -14 27 -8 2 -10 -2 -5 -15 6 -17 4 -16 -17 2 -21 18 -20 13 10 -40z"/>
<path d="M3031 4894 c0 -11 3 -14 6 -6 3 7 2 16 -1 19 -3 4 -6 -2 -5 -13z"/>
<path d="M3093 4875 c0 -22 2 -30 4 -17 2 12 2 30 0 40 -3 9 -5 -1 -4 -23z"/>
<path d="M5360 4880 c0 -5 7 -10 16 -10 8 0 12 5 9 10 -3 6 -10 10 -16 10 -5
0 -9 -4 -9 -10z"/>
<path d="M3042 4845 c0 -16 2 -22 5 -12 2 9 2 23 0 30 -3 6 -5 -1 -5 -18z"/>
<path d="M5120 4846 c0 -8 4 -17 9 -20 5 -4 7 3 4 14 -6 23 -13 26 -13 6z"/>
<path d="M3082 4810 c0 -14 2 -19 5 -12 2 6 2 18 0 25 -3 6 -5 1 -5 -13z"/>
<path d="M3047 4690 c-9 -150 -15 -183 -33 -176 -10 4 -12 -4 -8 -32 14 -108
14 -110 -56 -355 -18 -61 -28 -81 -46 -89 -13 -6 -24 -19 -24 -28 0 -9 -5 -21
-12 -28 -9 -9 -7 -12 12 -12 22 0 22 -1 7 -18 -10 -10 -17 -25 -17 -33 0 -21
-23 -69 -34 -69 -4 0 -6 9 -3 20 7 26 -8 26 -27 -2 -12 -16 -24 -21 -56 -20
-22 1 -40 -2 -40 -6 0 -12 -49 -34 -60 -27 -16 10 -24 76 -10 85 8 5 3 10 -17
14 -21 5 -40 1 -64 -13 -19 -10 -63 -26 -99 -35 -142 -33 -149 -32 -108 11 24
26 15 29 -39 14 -39 -11 -52 -2 -21 16 l23 12 -27 1 c-15 0 -30 -5 -33 -10 -4
-6 -26 -8 -53 -5 -26 2 -90 7 -142 10 -52 3 -115 9 -140 15 -25 5 -54 9 -64
10 -19 0 -19 0 0 -21 15 -17 19 -36 18 -99 -1 -69 -4 -83 -32 -129 l-32 -51
32 4 c18 2 60 13 92 25 33 12 61 19 64 16 9 -8 -148 -76 -160 -69 -7 4 -8 3
-4 -4 4 -7 1 -12 -7 -12 -25 0 -39 -26 -22 -40 8 -7 15 -19 15 -28 0 -26 72
-8 182 46 185 91 259 122 301 128 42 5 42 5 21 -13 l-21 -19 22 -21 23 -20 11
24 c14 31 27 29 46 -7 12 -22 12 -30 3 -30 -7 0 -2 -7 11 -16 l23 -17 -28 -25
c-16 -15 -23 -27 -16 -30 7 -2 12 -13 12 -25 0 -18 -2 -19 -10 -7 -7 12 -13
11 -34 -10 -15 -13 -26 -28 -26 -34 0 -6 -21 -26 -47 -43 -83 -55 -156 -107
-180 -129 -23 -21 -138 -68 -245 -100 -90 -27 -61 -27 48 0 95 24 183 54 380
129 50 19 118 38 150 42 79 9 134 24 134 35 0 6 12 10 28 10 15 0 38 8 51 17
14 9 21 11 17 5 -10 -16 5 -14 28 3 11 8 28 15 39 15 10 0 15 5 12 10 -3 6 3
10 14 10 12 0 21 7 21 15 0 8 4 15 10 15 5 0 7 -7 3 -16 -5 -14 -2 -14 22 2
15 10 44 18 64 17 48 -1 85 19 137 75 25 26 44 40 44 32 1 -11 4 -10 15 4 15
20 18 89 3 80 -5 -3 -28 -8 -51 -11 -22 -2 -46 -7 -52 -11 -5 -4 -31 -8 -57
-9 -27 -1 -69 -9 -96 -17 -64 -22 -220 -25 -233 -6 -8 14 -13 7 -10 -13 1 -8
-99 0 -108 8 -11 11 16 25 49 25 26 0 40 5 44 17 11 28 -9 35 -36 13 -37 -29
-41 -25 -19 18 10 20 26 54 35 75 9 20 20 37 25 37 5 0 23 -12 40 -26 17 -14
31 -21 31 -15 0 6 9 11 20 11 11 0 20 3 20 8 0 13 48 30 62 20 10 -6 2 -18
-32 -47 -53 -46 -50 -62 6 -25 21 14 48 27 61 29 22 2 83 58 83 77 0 6 6 8 14
5 10 -4 16 2 18 15 2 15 13 24 38 31 47 12 62 28 16 17 -31 -7 -36 -5 -36 9 0
26 7 29 45 21 41 -9 68 13 58 48 -6 23 6 29 24 11 8 -8 13 -7 18 1 4 7 3 15
-2 19 -14 10 -45 133 -35 143 5 5 14 -16 22 -49 12 -57 38 -119 45 -111 2 2
-3 31 -13 63 -23 84 -23 304 1 359 9 21 17 51 17 67 0 15 4 30 8 33 10 6 5
-144 -6 -189 -4 -16 -5 -75 -2 -130 l5 -100 9 90 c4 50 10 104 11 120 2 17 4
43 4 59 1 21 5 27 16 22 8 -3 15 -1 15 4 0 6 -7 10 -16 10 -13 0 -15 7 -11 33
3 17 11 77 17 132 6 55 13 109 16 120 7 29 -43 -70 -57 -113 -14 -46 -29 -63
-30 -36 0 16 -2 15 -10 -5 -16 -41 -20 -16 -8 53 6 37 9 82 7 101 -2 20 0 35
7 35 6 0 5 3 -2 8 -6 4 -13 23 -15 42 -2 19 -7 -21 -11 -90z m-77 -635 c-7 -9
-15 -13 -18 -10 -3 2 1 11 8 20 7 9 15 13 18 10 3 -2 -1 -11 -8 -20z m30 -29
c0 -32 -42 -82 -59 -71 -10 5 -10 9 -2 15 7 4 13 18 14 31 1 22 22 48 40 49 4
0 7 -11 7 -24z m-775 -156 c-3 -5 -13 -10 -21 -10 -8 0 -12 5 -9 10 3 6 13 10
21 10 8 0 12 -4 9 -10z m275 -23 c0 -2 -14 -16 -32 -33 -23 -22 -29 -24 -24
-10 4 12 1 23 -6 29 -9 6 -8 7 4 3 10 -3 20 -1 23 4 6 9 35 14 35 7z m-126
-32 c-21 -16 -65 -21 -48 -6 8 8 34 17 58 20 6 0 1 -6 -10 -14z m-71 -12 c-7
-2 -19 -2 -25 0 -7 3 -2 5 12 5 14 0 19 -2 13 -5z m737 -182 c-12 -17 -23 -31
-24 -31 -1 0 -12 10 -24 23 l-22 23 33 2 c17 2 36 7 41 12 20 20 17 0 -4 -29z
m-72 -34 c2 -12 -3 -17 -17 -17 -12 0 -21 6 -21 13 0 31 32 34 38 4z m-138
-42 c-6 -15 -13 -26 -16 -23 -2 3 0 18 6 33 6 15 13 26 16 23 2 -3 0 -18 -6
-33z m-450 -70 c-7 -8 -18 -15 -24 -15 -6 0 -2 7 8 15 25 19 32 19 16 0z m-71
-118 c-2 -2 -17 -11 -34 -21 l-30 -17 24 20 c13 12 28 21 34 21 6 0 8 -1 6 -3z"/>
<path d="M5191 4713 c17 -35 32 -63 34 -63 6 0 -4 73 -11 79 -3 3 -10 6 -14 6
-5 0 -16 9 -24 20 -9 11 -2 -8 15 -42z"/>
<path d="M2992 4720 c0 -19 3 -57 8 -85 6 -40 7 -43 8 -15 0 19 -3 58 -8 85
-6 40 -7 43 -8 15z"/>
<path d="M3171 4734 c0 -11 3 -14 6 -6 3 7 2 16 -1 19 -3 4 -6 -2 -5 -13z"/>
<path d="M4370 4733 c0 -11 27 -96 60 -188 33 -92 60 -169 60 -170 0 -2 -9 -5
-21 -8 -17 -5 -19 -9 -9 -26 6 -12 20 -21 31 -21 11 0 31 -12 45 -27 l24 -28
-6 30 c-3 17 -17 52 -30 78 -13 27 -24 55 -24 62 0 8 -10 31 -22 52 -25 42
-38 72 -74 183 -28 81 -34 94 -34 63z"/>
<path d="M2284 4695 c-10 -8 -14 -15 -8 -15 6 0 17 7 24 15 16 19 9 19 -16 0z"/>
<path d="M3320 4498 c-29 -73 -80 -187 -112 -253 -62 -124 -82 -175 -70 -175
7 0 94 174 128 255 36 84 115 298 111 301 -2 2 -28 -55 -57 -128z"/>
<path d="M4927 4558 c9 -24 21 -49 27 -57 14 -17 33 -51 45 -79 13 -27 90
-142 96 -142 2 0 -4 15 -15 33 -28 48 -118 217 -134 255 -22 48 -39 40 -19
-10z"/>
<path d="M3002 4550 c0 -14 2 -19 5 -12 2 6 2 18 0 25 -3 6 -5 1 -5 -13z"/>
<path d="M4292 4445 c0 -16 2 -22 5 -12 2 9 2 23 0 30 -3 6 -5 -1 -5 -18z"/>
<path d="M4271 4383 c-6 -15 -20 -43 -31 -62 -11 -19 -17 -37 -15 -40 8 -8 33
31 50 78 17 49 14 69 -4 24z"/>
<path d="M4717 4381 c-4 -17 -12 -19 -76 -14 -44 3 -71 1 -71 -5 0 -20 27 -30
92 -34 61 -3 68 -1 77 19 7 15 7 24 0 28 -5 4 -7 11 -4 16 4 5 2 9 -3 9 -5 0
-12 -9 -15 -19z"/>
<path d="M4356 4352 c-2 -9 -8 -37 -11 -62 -8 -51 4 -49 14 2 6 26 11 32 27
30 12 -1 27 4 34 13 16 19 14 20 -27 28 -25 5 -33 3 -37 -11z"/>
<path d="M4280 4330 c-8 -16 -8 -20 4 -20 10 0 13 6 9 17 -4 11 -3 14 5 9 7
-4 12 -2 12 3 0 18 -19 12 -30 -9z"/>
<path d="M4975 4262 c44 -45 83 -82 87 -82 8 0 -105 116 -142 145 -14 10 11
-18 55 -63z"/>
<path d="M3307 4257 c-10 -12 -40 -55 -65 -96 -44 -70 -155 -189 -275 -297
-29 -25 -47 -45 -40 -43 6 2 53 40 103 84 51 44 132 113 179 154 109 93 125
109 86 85 -16 -10 -38 -24 -48 -32 -35 -30 -25 -4 29 77 53 79 69 114 31 68z"/>
<path d="M4191 4174 c0 -11 3 -14 6 -6 3 7 2 16 -1 19 -3 4 -6 -2 -5 -13z"/>
<path d="M5081 4163 c0 -5 14 -19 32 -32 l32 -25 -29 32 c-31 33 -36 37 -35
25z"/>
<path d="M3329 4133 l-24 -28 28 24 c25 23 32 31 24 31 -2 0 -14 -12 -28 -27z"/>
<path d="M1263 4110 c20 -13 185 -70 201 -70 37 0 -96 51 -199 76 -19 5 -19 4
-2 -6z"/>
<path d="M4110 4100 c-6 -11 -8 -20 -6 -20 3 0 10 9 16 20 6 11 8 20 6 20 -3
0 -10 -9 -16 -20z"/>
<path d="M3254 4078 c-21 -18 -54 -48 -74 -66 -33 -32 -34 -33 -5 -16 31 19
135 114 124 114 -3 0 -23 -15 -45 -32z"/>
<path d="M3996 4055 c9 -14 24 -25 32 -23 28 5 23 26 -9 37 -42 15 -42 15 -23
-14z"/>
<path d="M2784 4058 c-4 -6 -8 -24 -8 -40 l-1 -29 18 22 c18 23 23 59 8 59 -6
0 -13 -5 -17 -12z"/>
<path d="M4073 4037 c-7 -11 6 -23 33 -31 16 -5 23 -2 27 13 4 15 -2 20 -25
23 -16 3 -31 1 -35 -5z"/>
<path d="M1498 4028 c6 -6 18 -8 28 -6 14 3 12 5 -9 10 -19 3 -25 2 -19 -4z"/>
<path d="M4897 4015 c10 -13 22 -25 26 -25 4 0 0 11 -10 25 -10 13 -22 25 -26
25 -4 0 0 -11 10 -25z"/>
<path d="M2736 4014 c-17 -12 -17 -14 -4 -14 9 0 20 5 23 11 11 17 2 18 -19 3z"/>
<path d="M4150 4011 c0 -5 7 -12 16 -15 22 -9 24 -8 24 9 0 8 -9 15 -20 15
-11 0 -20 -4 -20 -9z"/>
<path d="M3500 3968 l-20 -43 25 30 c14 17 25 36 25 43 0 22 -9 13 -30 -30z"/>
<path d="M4034 3983 c-10 -15 -22 -35 -28 -43 -5 -8 -1 -6 9 5 11 11 28 28 38
37 10 9 13 19 8 23 -6 3 -18 -7 -27 -22z"/>
<path d="M4224 3988 l-21 -21 20 -24 c24 -27 37 -30 31 -5 -5 15 2 17 53 17
32 0 64 -4 70 -8 14 -9 123 13 123 25 0 9 -40 15 -140 22 -41 3 -84 8 -95 11
-12 3 -28 -3 -41 -17z"/>
<path d="M4510 3974 c0 -8 5 -12 10 -9 6 3 10 10 10 16 0 5 -4 9 -10 9 -5 0
-10 -7 -10 -16z"/>
<path d="M2140 3955 c-23 -9 -28 -14 -15 -14 30 -1 65 10 65 20 0 11 -7 11
-50 -6z"/>
<path d="M2766 3951 c-22 -3 -41 -12 -44 -18 -4 -15 34 -18 43 -3 3 6 17 10
31 10 13 0 24 5 24 10 0 6 -3 9 -7 9 -5 -1 -26 -5 -47 -8z"/>
<path d="M2380 3934 c-33 -13 -33 -14 -5 -8 17 3 34 10 40 15 11 11 8 11 -35
-7z"/>
<path d="M4744 3785 c-3 -14 -10 -23 -14 -20 -12 7 -22 -26 -11 -39 4 -6 14
-28 21 -49 13 -42 30 -41 30 3 0 37 7 41 59 29 24 -5 46 -8 48 -6 2 3 -18 18
-46 35 -27 17 -52 40 -56 51 -9 28 -23 26 -31 -4z"/>
<path d="M4930 3760 c6 -11 13 -20 16 -20 2 0 0 9 -6 20 -6 11 -13 20 -16 20
-2 0 0 -9 6 -20z"/>
<path d="M3855 3720 c-16 -16 -24 -30 -18 -30 7 0 21 14 33 30 12 17 20 30 18
30 -3 0 -17 -13 -33 -30z"/>
<path d="M3208 3701 c-10 -10 -18 -26 -18 -37 0 -14 -3 -15 -8 -6 -6 9 -23 -3
-60 -42 -58 -61 -72 -99 -17 -46 41 40 63 32 40 -14 -9 -16 -14 -31 -12 -32 6
-6 85 139 92 169 8 31 6 32 -17 8z"/>
<path d="M4935 3690 c3 -5 11 -10 16 -10 6 0 7 5 4 10 -3 6 -11 10 -16 10 -6
0 -7 -4 -4 -10z"/>
<path d="M2620 3650 c-12 -8 -11 -10 8 -10 12 0 22 5 22 10 0 13 -11 13 -30 0z"/>
<path d="M3296 3575 c-9 -26 -7 -32 5 -12 6 10 9 21 6 23 -2 3 -7 -2 -11 -11z"/>
<path d="M1660 3515 c-7 -8 -18 -15 -24 -15 -7 0 -19 -16 -28 -35 -16 -35 -12
-45 10 -23 7 7 12 9 12 5 0 -4 23 4 51 18 l50 26 -24 20 c-30 23 -31 23 -47 4z"/>
<path d="M5001 3394 c0 -11 3 -14 6 -6 3 7 2 16 -1 19 -3 4 -6 -2 -5 -13z"/>
<path d="M3364 3266 c-10 -8 -16 -17 -13 -20 3 -3 14 3 24 14 21 23 17 26 -11
6z"/>
<path d="M4670 3265 c-7 -9 -8 -15 -2 -15 5 0 12 7 16 15 3 8 4 15 2 15 -2 0
-9 -7 -16 -15z"/>
<path d="M4936 3175 c4 -8 11 -15 16 -15 6 0 5 6 -2 15 -7 8 -14 15 -16 15 -2
0 -1 -7 2 -15z"/>
<path d="M1755 3150 c-13 -5 -14 -9 -5 -9 8 0 24 4 35 9 13 5 14 9 5 9 -8 0
-24 -4 -35 -9z"/>
<path d="M1423 3073 c9 -2 23 -2 30 0 6 3 -1 5 -18 5 -16 0 -22 -2 -12 -5z"/>
<path d="M4533 3058 c-36 -12 -44 -28 -15 -28 11 0 27 9 37 20 10 11 16 20 14
19 -2 -1 -19 -6 -36 -11z"/>
<path d="M4423 2965 c-19 -21 -16 -27 7 -15 11 6 20 15 20 20 0 14 -13 12 -27
-5z"/>
<path d="M4364 2908 l-29 -33 33 29 c17 17 32 31 32 33 0 8 -8 1 -36 -29z"/>
<path d="M3542 2918 c2 -6 15 -12 29 -14 13 -1 38 -6 54 -10 40 -9 22 9 -24
25 -43 14 -64 14 -59 -1z"/>
<path d="M1545 2910 c-13 -5 -14 -9 -5 -9 8 0 24 4 35 9 13 5 14 9 5 9 -8 0
-24 -4 -35 -9z"/>
<path d="M1498 2893 c7 -3 16 -2 19 1 4 3 -2 6 -13 5 -11 0 -14 -3 -6 -6z"/>
<path d="M4307 2843 c-4 -3 -7 -11 -7 -17 0 -6 5 -5 12 2 6 6 9 14 7 17 -3 3
-9 2 -12 -2z"/>
<path d="M2310 2795 c-14 -8 -20 -14 -15 -14 6 0 21 6 35 14 14 8 21 14 15 14
-5 0 -21 -6 -35 -14z"/>
<path d="M2153 2741 c-65 -17 -102 -38 -46 -27 18 4 34 3 37 -3 8 -12 -56 -31
-104 -30 l-35 0 30 14 30 15 -35 -6 c-60 -10 -110 -27 -104 -35 6 -10 -20 -12
-29 -2 -4 3 -62 5 -130 3 -67 -2 -161 -4 -209 -4 -63 0 -89 -4 -92 -13 -3 -7
1 -13 9 -13 28 0 24 -18 -8 -37 -17 -11 -54 -25 -82 -33 -27 -7 -66 -22 -85
-32 -33 -17 -26 -18 27 -3 63 18 65 14 19 -27 -26 -22 -45 -43 -42 -46 3 -3
14 1 23 9 10 7 6 0 -8 -16 -35 -41 -59 -81 -59 -100 0 -9 -4 -14 -9 -10 -14 8
-28 -25 -25 -60 1 -16 -3 -46 -9 -65 -11 -38 -95 -132 -136 -153 -66 -34 -187
-101 -199 -110 -11 -9 -10 -12 6 -18 27 -10 87 9 137 43 29 19 41 23 43 13 2
-7 17 -18 34 -24 l31 -11 -25 -32 c-14 -18 -52 -51 -84 -74 -32 -23 -64 -54
-70 -70 -11 -26 -10 -29 16 -42 28 -14 32 -42 6 -42 -21 0 -42 -48 -28 -62 7
-7 12 -23 12 -38 0 -14 7 -34 16 -45 10 -14 13 -31 9 -57 -6 -34 -4 -38 19
-44 33 -8 38 -54 6 -54 -12 0 -20 -7 -20 -17 0 -9 -3 -13 -7 -10 -3 4 -12 -1
-19 -11 -10 -12 -13 -13 -14 -3 0 14 -49 -52 -53 -72 -1 -7 -9 -17 -17 -24
-16 -12 -17 -15 -19 -63 -1 -22 -8 -34 -26 -42 -29 -13 -38 -35 -40 -105 -1
-48 0 -52 19 -48 12 2 40 7 64 9 24 3 56 12 70 21 15 8 35 17 45 21 9 3 17 10
17 15 0 5 7 9 16 9 9 0 30 12 47 26 23 19 39 25 65 22 l33 -4 -23 18 -23 17
35 8 c19 4 47 7 63 7 15 0 27 4 27 10 0 5 13 -3 30 -19 23 -22 27 -31 18 -42
-9 -11 -16 -10 -42 5 -17 10 -37 17 -43 15 -18 -6 24 -50 55 -58 19 -5 22 -9
12 -15 -7 -4 -14 -17 -15 -27 0 -10 -4 -24 -9 -31 -14 -23 20 -12 99 34 175
101 314 174 385 204 41 17 82 34 90 39 8 4 36 14 63 22 35 10 47 18 48 34 1
16 2 17 6 3 3 -13 11 -16 36 -11 49 9 70 25 25 19 -21 -3 -38 0 -38 5 0 13 50
31 66 25 17 -7 72 12 106 36 27 18 170 47 236 48 17 0 32 5 32 12 0 6 8 4 19
-6 15 -13 20 -14 24 -4 2 7 8 10 12 6 4 -4 5 -14 2 -23 -5 -12 -22 -15 -80
-14 -40 1 -100 -6 -133 -14 -32 -9 -72 -19 -88 -22 -15 -3 -26 -8 -24 -10 2
-2 46 5 98 15 76 16 101 18 123 8 23 -9 31 -8 37 3 7 11 17 11 52 2 28 -8 58
-9 81 -3 20 4 37 6 37 3 0 -3 11 2 25 11 14 9 25 12 25 7 0 -5 -6 -11 -12 -14
-7 -2 7 -14 32 -27 25 -12 61 -35 81 -51 20 -16 39 -26 41 -23 12 12 55 -96
53 -133 -1 -21 0 -28 2 -15 6 33 20 27 34 -16 6 -20 15 -41 19 -47 14 -18 30
-127 30 -208 l0 -79 -27 6 c-87 21 -107 19 -162 -13 -29 -18 -56 -30 -59 -27
-3 3 16 46 41 96 62 122 42 105 -27 -24 -55 -102 -56 -103 -133 -149 -43 -25
-87 -49 -98 -53 -60 -22 -195 -149 -195 -182 0 -12 3 -12 17 -1 10 8 28 26 41
41 12 15 31 29 40 32 9 3 22 16 27 28 11 24 48 48 243 154 26 14 55 33 64 41
15 14 20 14 34 2 15 -12 16 -12 10 7 -5 16 0 23 19 32 59 27 172 2 161 -36 -3
-9 -12 -46 -21 -82 -22 -84 -43 -120 -72 -120 -13 0 -23 -4 -23 -10 0 -5 5
-10 12 -10 9 0 9 -3 0 -12 -7 -7 -12 -18 -12 -26 0 -22 -40 -73 -52 -66 -6 4
-8 2 -4 -4 3 -6 -6 -19 -21 -30 -21 -15 -43 -19 -93 -18 -91 2 -344 -23 -348
-35 -2 -5 -21 -9 -43 -9 -28 0 -39 4 -39 15 0 8 -7 15 -15 15 -14 0 -33 -65
-22 -76 2 -3 22 2 43 10 62 23 157 35 336 41 l167 5 -8 -28 c-7 -23 -4 -34 18
-61 27 -33 28 -33 89 -26 49 5 65 12 74 29 6 11 47 57 90 101 76 77 89 95 68
95 -5 0 -10 9 -10 20 0 12 -6 20 -12 19 -26 -3 -39 1 -33 11 6 10 -12 14 -45
11 -13 -1 -15 16 -14 101 1 57 6 121 13 143 15 54 14 94 -5 206 -18 105 -51
211 -95 299 -16 32 -29 66 -29 74 0 9 -4 16 -10 16 -5 0 -10 9 -10 20 0 32 34
24 79 -20 34 -33 41 -47 41 -77 0 -48 21 -125 48 -183 22 -46 32 -63 64 -112
14 -21 18 -48 18 -120 0 -71 3 -89 12 -80 18 18 27 15 38 -14 6 -14 14 -22 20
-19 6 4 10 -11 10 -38 0 -32 4 -44 15 -44 8 0 15 8 15 17 0 9 11 31 25 49 20
28 22 38 13 55 -11 21 -11 21 11 1 l22 -19 -20 52 c-24 61 -24 62 -11 62 5 0
17 -12 25 -27 9 -16 14 -20 11 -10 -3 10 -6 26 -6 34 0 9 -15 30 -33 47 -35
33 -57 106 -57 190 0 62 -20 203 -42 291 -24 97 -32 142 -25 135 7 -7 76 -174
98 -240 11 -30 52 -126 91 -213 62 -136 74 -155 82 -137 9 20 11 18 28 -22
l18 -43 -6 40 c-5 36 -5 38 8 20 20 -29 45 -112 52 -170 7 -62 10 -77 17 -90
3 -5 12 -32 18 -60 7 -27 19 -66 26 -85 7 -19 20 -68 30 -109 15 -70 15 -76
-1 -107 -16 -30 -16 -34 -1 -58 15 -23 19 -24 49 -14 18 7 41 22 51 35 10 13
23 21 28 17 19 -11 39 67 50 202 14 165 9 272 -14 304 -11 16 -13 29 -7 40 5
9 7 31 4 48 -4 24 -1 32 10 32 11 0 14 12 14 48 -1 53 -12 82 -32 82 -8 0 -14
6 -13 13 2 67 -4 118 -15 115 -17 -6 -38 37 -38 79 0 19 -5 44 -12 56 -11 22
-20 61 -22 105 l-1 23 -22 -26 c-13 -14 -23 -22 -23 -18 1 17 38 51 61 56 23
4 23 4 2 6 -15 1 -23 7 -23 19 0 14 2 15 10 2 14 -22 12 -1 -5 58 -9 29 -21
52 -26 52 -6 0 -9 7 -6 15 8 20 -20 112 -37 122 -7 4 -23 27 -35 51 -12 23
-28 42 -36 42 -21 0 -27 -17 -9 -24 10 -4 14 -12 10 -22 -4 -12 -2 -15 9 -10
10 3 17 -3 21 -19 3 -14 10 -25 14 -25 4 0 18 -18 29 -41 19 -35 20 -48 12
-92 -5 -28 -6 -58 -3 -66 3 -9 1 -13 -3 -9 -5 5 -16 -5 -26 -21 -9 -15 -46
-44 -80 -63 -55 -31 -72 -35 -122 -33 -69 3 -93 21 -102 77 -4 21 -13 42 -20
44 -8 3 -16 12 -19 21 -7 16 17 57 27 46 4 -3 7 -1 7 5 0 6 -10 17 -22 23 -14
8 -18 14 -10 17 17 5 15 37 -5 53 -9 8 -22 29 -30 47 -8 18 -27 41 -43 50 -16
9 -34 26 -40 37 -10 19 -10 19 -5 1 6 -19 5 -19 -15 -1 -11 10 -20 24 -20 31
0 8 -18 52 -40 99 -22 47 -40 94 -40 105 0 10 -4 22 -10 25 -5 3 -10 13 -10
22 0 8 -12 47 -27 86 -22 55 -38 78 -77 111 -26 22 -83 74 -125 114 -43 39
-81 72 -86 72 -4 0 0 -9 10 -20 10 -11 14 -20 9 -20 -12 0 -111 81 -104 86 3
2 -4 9 -14 17 -15 11 -16 16 -6 22 8 5 11 4 7 -2 -4 -6 3 -13 14 -16 14 -4 18
-10 13 -19 -4 -7 -4 -10 1 -6 4 4 22 -3 39 -15 30 -21 29 -20 -9 26 -21 26
-43 47 -47 47 -17 0 -23 2 -34 11 -6 5 -42 18 -80 29 -67 19 -153 46 -184 57
-10 3 -2 11 25 23 48 22 39 22 -42 1z m-703 -181 c0 -5 -8 -10 -17 -10 -15 0
-16 2 -3 10 19 12 20 12 20 0z m937 -440 c7 -14 10 -26 7 -29 -7 -8 -54 41
-48 51 9 14 28 4 41 -22z m-1187 -25 c0 -2 -10 -9 -22 -15 -22 -11 -22 -10 -4
4 21 17 26 19 26 11z m20 -240 c0 -17 -49 -37 -71 -30 -14 5 -17 2 -13 -9 4
-10 1 -16 -7 -17 -8 -1 -25 -2 -38 -2 -13 -1 -29 -11 -35 -22 -17 -30 -28 -35
-45 -18 -13 14 -10 20 30 57 25 22 63 56 84 73 l39 33 28 -27 c15 -15 28 -32
28 -38z m1894 -236 c-3 -5 -10 -7 -15 -3 -5 3 -7 10 -3 15 3 5 10 7 15 3 5 -3
7 -10 3 -15z m-204 -173 c0 -3 -4 -8 -10 -11 -5 -3 -10 -1 -10 4 0 6 5 11 10
11 6 0 10 -2 10 -4z m-1196 -101 c-4 -8 -8 -15 -10 -15 -2 0 -4 7 -4 15 0 8 4
15 10 15 5 0 7 -7 4 -15z m-280 -142 c-22 -17 -119 -12 -137 6 -8 8 14 11 72
9 75 -1 82 -3 65 -15z m2111 -205 c5 -4 23 -121 45 -285 5 -40 13 -85 16 -100
l7 -28 -26 25 c-15 14 -27 33 -27 43 0 9 -22 61 -48 115 -27 53 -55 113 -62
132 -8 19 -22 50 -32 68 -10 18 -18 35 -18 38 0 7 138 -1 145 -8z m-655 -414
c0 -8 -5 -12 -10 -9 -6 4 -8 11 -5 16 9 14 15 11 15 -7z"/>
<path d="M1253 2739 c-18 -5 -35 -14 -39 -21 -10 -16 57 -1 76 17 16 17 10 17
-37 4z"/>
<path d="M4004 2655 c11 -8 26 -15 33 -15 22 0 14 8 -19 19 -30 10 -31 9 -14
-4z"/>
<path d="M1258 2643 c-16 -3 -28 -9 -28 -15 0 -10 79 -1 92 11 9 8 -24 10 -64
4z"/>
<path d="M4165 2640 c-3 -5 -1 -10 4 -10 6 0 11 5 11 10 0 6 -2 10 -4 10 -3 0
-8 -4 -11 -10z"/>
<path d="M4140 2605 c0 -14 4 -25 9 -25 4 0 6 11 3 25 -2 14 -6 25 -8 25 -2 0
-4 -11 -4 -25z"/>
<path d="M1128 2603 c7 -3 16 -2 19 1 4 3 -2 6 -13 5 -11 0 -14 -3 -6 -6z"/>
<path d="M4353 2540 c0 -25 2 -35 4 -22 2 12 2 32 0 45 -2 12 -4 2 -4 -23z"/>
<path d="M4161 2555 c0 -5 6 -19 14 -29 8 -11 15 -15 15 -10 0 6 -7 19 -15 30
-8 10 -14 15 -14 9z"/>
<path d="M1220 2510 c-8 -5 -10 -10 -5 -10 6 0 17 5 25 10 8 5 11 10 5 10 -5
0 -17 -5 -25 -10z"/>
<path d="M4194 2385 c0 -60 1 -84 3 -52 2 32 2 81 0 110 -2 29 -3 3 -3 -58z"/>
<path d="M4342 2458 c-1 -14 -5 -35 -8 -45 -5 -14 -4 -15 5 -7 7 7 11 26 8 45
-3 28 -4 29 -5 7z"/>
<path d="M3100 2421 c0 -6 4 -13 10 -16 6 -3 7 1 4 9 -7 18 -14 21 -14 7z"/>
<path d="M1205 2394 c-18 -16 -22 -22 -9 -15 18 9 53 42 43 41 -2 -1 -17 -12
-34 -26z"/>
<path d="M3076 2365 c11 -16 24 -39 28 -49 4 -13 10 -16 17 -9 14 14 3 34 -34
63 l-32 25 21 -30z"/>
<path d="M3134 2382 c-7 -5 -2 -21 13 -47 26 -46 27 -45 10 12 -7 25 -17 39
-23 35z"/>
<path d="M3180 1955 c14 -8 30 -14 35 -14 6 0 -1 6 -15 14 -14 8 -29 14 -35
14 -5 0 1 -6 15 -14z"/>
<path d="M3260 1915 c14 -7 27 -11 30 -9 6 7 -22 24 -40 23 -9 0 -5 -6 10 -14z"/>
<path d="M3300 1903 c0 -13 66 -46 82 -41 7 3 -5 13 -27 23 -22 10 -43 20 -47
22 -5 2 -8 0 -8 -4z"/>
<path d="M3461 1840 c0 -8 4 -22 9 -30 12 -18 12 -2 0 25 -6 13 -9 15 -9 5z"/>
<path d="M3198 1823 c6 -2 18 -2 25 0 6 3 1 5 -13 5 -14 0 -19 -2 -12 -5z"/>
<path d="M3520 1749 c0 -5 5 -7 10 -4 6 3 10 8 10 11 0 2 -4 4 -10 4 -5 0 -10
-5 -10 -11z"/>
<path d="M3407 1711 c-7 -27 4 -72 16 -68 19 6 30 34 23 60 -7 31 -31 36 -39
8z"/>
<path d="M3872 1513 c2 -9 9 -18 16 -21 18 -6 15 25 -4 32 -11 4 -14 1 -12
-11z"/>
<path d="M3940 1460 c0 -6 12 -16 28 -23 15 -6 31 -16 35 -22 5 -6 6 -2 3 8
-3 10 -6 23 -6 29 0 5 -6 8 -12 5 -7 -2 -21 0 -30 5 -12 6 -18 5 -18 -2z"/>
<path d="M4071 1443 c-1 -12 -8 -26 -17 -31 -14 -8 -12 -10 10 -14 28 -6 33 8
16 47 -8 19 -9 19 -9 -2z"/>
<path d="M4225 1415 c-22 -7 -55 -11 -74 -8 -24 4 -32 2 -27 -6 10 -16 92 -14
126 4 17 9 30 18 30 20 0 7 -8 5 -55 -10z"/>
<path d="M3650 1401 c0 -5 5 -13 10 -16 6 -3 10 -2 10 4 0 5 -4 13 -10 16 -5
3 -10 2 -10 -4z"/>
<path d="M3666 1354 c-9 -23 -7 -34 5 -34 5 0 7 6 3 13 -9 14 38 -23 48 -39 4
-6 17 -22 29 -35 l21 -24 -18 30 c-57 97 -77 117 -88 89z"/>
<path d="M4129 1326 c-45 -23 -112 -28 -160 -12 -24 9 -51 16 -59 16 -26 0
-22 -47 6 -77 14 -15 32 -42 40 -60 15 -29 41 -40 58 -22 6 6 -48 84 -59 84
-14 1 -52 24 -40 25 6 0 3 4 -5 10 -26 16 -6 18 59 4 36 -7 68 -11 73 -8 11 7
45 -85 39 -109 -1 -4 5 -18 14 -30 21 -29 19 -6 -4 68 -21 68 -17 80 33 89 19
4 33 12 33 21 0 8 -1 15 -1 15 -1 0 -13 -6 -27 -14z"/>
<path d="M3680 1300 c0 -5 5 -10 11 -10 5 0 7 5 4 10 -3 6 -8 10 -11 10 -2 0
-4 -4 -4 -10z"/>
<path d="M3686 1217 c3 -10 9 -15 12 -12 3 3 0 11 -7 18 -10 9 -11 8 -5 -6z"/>
<path d="M2800 1090 c-6 -11 -8 -20 -6 -20 3 0 10 9 16 20 6 11 8 20 6 20 -3
0 -10 -9 -16 -20z"/>
<path d="M3761 1044 c30 -32 99 -67 99 -50 0 11 -99 76 -116 76 -4 0 3 -12 17
-26z"/>
<path d="M4117 1051 c-6 -24 11 -111 23 -111 10 0 1 112 -10 123 -4 5 -10 -1
-13 -12z"/>
<path d="M2750 1010 c-6 -11 -8 -20 -6 -20 3 0 10 9 16 20 6 11 8 20 6 20 -3
0 -10 -9 -16 -20z"/>
<path d="M4034 990 c4 -14 8 -31 8 -37 1 -7 5 -13 9 -13 4 0 10 -11 13 -25 4
-14 11 -25 16 -25 6 0 10 -6 10 -14 0 -8 11 -17 25 -20 18 -5 25 -13 25 -30 0
-13 8 -30 17 -37 15 -13 16 -11 10 20 -4 19 -3 39 1 45 5 6 1 26 -8 45 l-17
34 -7 -27 c-10 -39 -26 -29 -61 36 -35 65 -51 84 -41 48z"/>
<path d="M3923 880 c6 -16 13 -28 15 -26 6 6 -10 56 -18 56 -5 0 -3 -13 3 -30z"/>
<path d="M2750 776 c0 -2 7 -7 16 -10 8 -3 12 -2 9 4 -6 10 -25 14 -25 6z"/>
<path d="M3071 530 c-5 -16 -7 -30 -4 -30 8 0 83 51 83 56 0 2 -15 4 -34 4
-29 0 -36 -5 -45 -30z"/>
<path d="M2180 410 c0 -5 5 -10 10 -10 6 0 10 5 10 10 0 6 -4 10 -10 10 -5 0
-10 -4 -10 -10z"/>
</g>
</svg>
